<svg width="300" height="108" viewBox="0 0 300 108" fill="none" xmlns="http://www.w3.org/2000/svg">
<path d="M25.4999 10.9805H12.8999V20.3405H23.8199V27.2405H12.8999V42.0005H2.3999V3.48047H25.4999V10.9805ZM37.4657 3.48047H46.3457C52.2257 3.48047 55.1657 5.96046 55.1657 10.9205V34.5605C55.1657 39.5205 52.2257 42.0005 46.3457 42.0005H37.4657C31.5857 42.0005 28.6457 39.5205 28.6457 34.5605V10.9205C28.6457 5.96046 31.5857 3.48047 37.4657 3.48047ZM44.6657 33.1805V12.3005C44.6657 11.4205 44.1658 10.9805 43.1657 10.9805H40.6457C39.6457 10.9805 39.1457 11.4205 39.1457 12.3005V33.1805C39.1457 34.0605 39.6457 34.5005 40.6457 34.5005H43.1657C44.1658 34.5005 44.6657 34.0605 44.6657 33.1805ZM68.4032 3.48047H77.2832C83.1632 3.48047 86.1032 5.96046 86.1032 10.9205V34.5605C86.1032 39.5205 83.1632 42.0005 77.2832 42.0005H68.4032C62.5232 42.0005 59.5832 39.5205 59.5832 34.5605V10.9205C59.5832 5.96046 62.5232 3.48047 68.4032 3.48047ZM75.6032 33.1805V12.3005C75.6032 11.4205 75.1033 10.9805 74.1032 10.9805H71.5832C70.5832 10.9805 70.0832 11.4205 70.0832 12.3005V33.1805C70.0832 34.0605 70.5832 34.5005 71.5832 34.5005H74.1032C75.1033 34.5005 75.6032 34.0605 75.6032 33.1805ZM113.921 3.48047V10.9805H106.481V42.0005H95.9807V10.9805H88.6007V3.48047H113.921ZM132.739 17.9405V11.7005C132.739 10.8205 132.239 10.3805 131.239 10.3805H126.919V19.2605H131.239C132.239 19.2605 132.739 18.8205 132.739 17.9405ZM132.739 33.7805V27.4805C132.739 26.6004 132.239 26.1605 131.239 26.1605H126.919V35.1005H131.239C132.239 35.1005 132.739 34.6605 132.739 33.7805ZM116.599 3.48047H134.239C140.119 3.48047 143.059 5.96046 143.059 10.9205V15.8405C143.059 19.3205 142.099 21.5805 140.179 22.6205C141.299 23.1005 142.059 23.8404 142.459 24.8405C142.859 25.8005 143.059 27.1205 143.059 28.8005V34.5605C143.059 39.5205 140.119 42.0005 134.239 42.0005H116.599V3.48047ZM167.157 42.0005L165.957 36.2405H156.717L155.457 42.0005H145.137L155.037 3.48047H167.817L177.717 42.0005H167.157ZM158.337 28.8005H164.337L161.397 14.9405L158.337 28.8005ZM190.615 34.5005H202.555V42.0005H180.115V3.48047H190.615V34.5005ZM215.458 34.5005H227.398V42.0005H204.958V3.48047H215.458V34.5005ZM2.3999 57.4805H20.2199C26.0999 57.4805 29.0399 59.9604 29.0399 64.9205V75.9605C29.0399 80.9205 26.0999 83.4005 20.2199 83.4005H12.8999V96.0005H2.3999V57.4805ZM18.5399 74.5805V66.3005C18.5399 65.4204 18.04 64.9805 17.0399 64.9805H12.8999V75.9005H17.0399C18.04 75.9005 18.5399 75.4605 18.5399 74.5805ZM43.1344 82.3205V96.0005H32.6344V57.4805H50.4544C56.3344 57.4805 59.2744 59.9604 59.2744 64.9205V74.8805C59.2744 78.6804 57.5543 81.0204 54.1144 81.9005L61.1944 96.0005H49.9143L43.7944 82.3205H43.1344ZM47.2744 64.9805H43.1344V75.1805H47.2744C48.2743 75.1805 48.7744 74.7405 48.7744 73.8605V66.3005C48.7744 65.4204 48.2743 64.9805 47.2744 64.9805ZM73.9546 88.5005H87.0946V96.0005H63.4546V57.4805H86.5546V64.9805H73.9546V72.8405H84.8146V80.3405H73.9546V88.5005ZM108.648 57.4805H119.568L110.088 96.0005H97.9077L88.4278 57.4805H99.3478L103.968 83.2205L108.648 57.4805ZM122.4 57.4805H132.9V96.0005H122.4V57.4805ZM148.193 88.5005H161.332V96.0005H137.693V57.4805H160.792V64.9805H148.193V72.8405H159.052V80.3405H148.193V88.5005ZM201.426 57.4805H211.806L203.646 96.0005H191.586L187.326 73.0205L183.066 96.0005H171.006L162.846 57.4805H173.766L177.006 83.4005L182.166 57.4805H192.426L197.586 83.4005L201.426 57.4805ZM229.563 87.1805V81.7205C229.563 80.8404 229.062 80.4005 228.063 80.4005H222.303C219.342 80.4005 217.242 79.7604 216.003 78.4805C214.803 77.1605 214.203 75.2805 214.203 72.8405V64.9205C214.203 59.9604 217.122 57.4805 222.963 57.4805H231.183C237.022 57.4805 239.943 59.9604 239.943 64.9205V69.5405H229.443V66.3005C229.443 65.4204 228.942 64.9805 227.943 64.9805H226.203C225.202 64.9805 224.703 65.4204 224.703 66.3005V72.0005C224.703 72.8805 225.202 73.3205 226.203 73.3205H231.843C234.802 73.3205 236.902 73.9404 238.143 75.1805C239.422 76.4205 240.063 78.2405 240.063 80.6405V88.5605C240.063 93.5205 237.142 96.0005 231.303 96.0005H223.143C217.263 96.0005 214.323 93.5205 214.323 88.5605V83.9405H224.823V87.1805C224.823 88.0605 225.322 88.5005 226.323 88.5005H228.063C229.062 88.5005 229.563 88.0605 229.563 87.1805Z" fill="#003049"/>
<path d="M276 58.5C272.143 58.5 268.372 59.6436 265.167 61.7863C261.96 63.9291 259.461 66.9746 257.985 70.5377C256.509 74.1009 256.122 78.0216 256.875 81.8043C257.626 85.5869 259.485 89.0615 262.212 91.7886C264.939 94.5158 268.413 96.3729 272.196 97.1253C275.979 97.8777 279.898 97.4916 283.462 96.0156C287.025 94.5397 290.071 92.0405 292.213 88.8336C294.357 85.6269 295.5 81.8568 295.5 78C295.494 72.83 293.439 67.8732 289.782 64.2174C286.126 60.5616 281.17 58.5054 276 58.5ZM290.347 86.1413H284.044L282.307 83.7488L284.676 76.8525L287.488 75.9355L292.408 79.71C292.176 81.9736 291.474 84.1638 290.347 86.1413ZM259.597 79.71L264.508 75.9375L267.321 76.8543L269.689 83.7505L267.957 86.1413H261.652C260.524 84.1641 259.822 81.9738 259.588 79.71H259.597ZM261.472 70.215L262.506 73.7025L259.633 75.8943C259.888 73.9056 260.505 71.9807 261.456 70.215H261.472ZM272.437 82.5L270.289 76.2469L276 72.3205L281.712 76.2469L279.562 82.5H272.437ZM289.513 73.7025L290.547 70.215C291.496 71.9807 292.114 73.9056 292.369 75.8943L289.513 73.7025ZM288.351 67.0688L286.567 73.0837L283.741 74.0005L277.5 69.7107V66.7893L282.954 63.0393C285.009 64 286.846 65.3714 288.351 67.0688ZM279.388 61.8505L276 64.1795L272.611 61.8505C274.846 61.3831 277.153 61.3831 279.388 61.8505ZM269.046 63.0393L274.5 66.7893V69.7107L268.26 74.0005L265.434 73.0837L263.652 67.0688C265.155 65.3714 266.991 64 269.046 63.0393ZM263.841 89.1413H267.66L269.004 92.9419C267.052 92.0232 265.297 90.7322 263.841 89.1413ZM272.625 94.1495L270.397 87.8832L272.128 85.5H279.871L281.602 87.8832L279.384 94.1495C277.152 94.6171 274.848 94.6171 272.616 94.1495H272.625ZM283.005 92.9419L284.349 89.1413H288.169C286.708 90.7331 284.95 92.0243 282.996 92.9419H283.005Z" fill="#2B5367"/>
</svg>
