<svg width="200" height="72" viewBox="0 0 200 72" fill="none" xmlns="http://www.w3.org/2000/svg">
<path d="M16.9996 7.32031H8.59961V13.5603H15.8796V18.1603H8.59961V28.0003H1.59961V2.32031H16.9996V7.32031ZM24.9768 2.32031H30.8968C34.8168 2.32031 36.7768 3.97364 36.7768 7.28031V23.0403C36.7768 26.347 34.8168 28.0003 30.8968 28.0003H24.9768C21.0568 28.0003 19.0968 26.347 19.0968 23.0403V7.28031C19.0968 3.97364 21.0568 2.32031 24.9768 2.32031ZM29.7768 22.1203V8.20031C29.7768 7.61364 29.4435 7.32031 28.7768 7.32031H27.0968C26.4301 7.32031 26.0968 7.61364 26.0968 8.20031V22.1203C26.0968 22.707 26.4301 23.0003 27.0968 23.0003H28.7768C29.4435 23.0003 29.7768 22.707 29.7768 22.1203ZM45.6018 2.32031H51.5218C55.4418 2.32031 57.4018 3.97364 57.4018 7.28031V23.0403C57.4018 26.347 55.4418 28.0003 51.5218 28.0003H45.6018C41.6818 28.0003 39.7218 26.347 39.7218 23.0403V7.28031C39.7218 3.97364 41.6818 2.32031 45.6018 2.32031ZM50.4018 22.1203V8.20031C50.4018 7.61364 50.0685 7.32031 49.4018 7.32031H47.7218C47.0551 7.32031 46.7218 7.61364 46.7218 8.20031V22.1203C46.7218 22.707 47.0551 23.0003 47.7218 23.0003H49.4018C50.0685 23.0003 50.4018 22.707 50.4018 22.1203ZM75.9468 2.32031V7.32031H70.9868V28.0003H63.9868V7.32031H59.0668V2.32031H75.9468ZM88.4924 11.9603V7.80031C88.4924 7.21364 88.1591 6.92031 87.4924 6.92031H84.6124V12.8403H87.4924C88.1591 12.8403 88.4924 12.547 88.4924 11.9603ZM88.4924 22.5203V18.3203C88.4924 17.7336 88.1591 17.4403 87.4924 17.4403H84.6124V23.4003H87.4924C88.1591 23.4003 88.4924 23.107 88.4924 22.5203ZM77.7324 2.32031H89.4924C93.4124 2.32031 95.3724 3.97364 95.3724 7.28031V10.5603C95.3724 12.8803 94.7324 14.387 93.4524 15.0803C94.1991 15.4003 94.7057 15.8936 94.9724 16.5603C95.2391 17.2003 95.3724 18.0803 95.3724 19.2003V23.0403C95.3724 26.347 93.4124 28.0003 89.4924 28.0003H77.7324V2.32031ZM111.438 28.0003L110.638 24.1603H104.478L103.638 28.0003H96.7574L103.358 2.32031H111.878L118.478 28.0003H111.438ZM105.558 19.2003H109.558L107.598 9.96031L105.558 19.2003ZM127.077 23.0003H135.037V28.0003H120.077V2.32031H127.077V23.0003ZM143.639 23.0003H151.599V28.0003H136.639V2.32031H143.639V23.0003ZM1.59961 38.3203H13.4796C17.3996 38.3203 19.3596 39.9736 19.3596 43.2803V50.6403C19.3596 53.947 17.3996 55.6003 13.4796 55.6003H8.59961V64.0003H1.59961V38.3203ZM12.3596 49.7203V44.2003C12.3596 43.6136 12.0263 43.3203 11.3596 43.3203H8.59961V50.6003H11.3596C12.0263 50.6003 12.3596 50.307 12.3596 49.7203ZM28.7559 54.8803V64.0003H21.7559V38.3203H33.6359C37.5559 38.3203 39.5159 39.9736 39.5159 43.2803V49.9203C39.5159 52.4536 38.3692 54.0136 36.0759 54.6003L40.7959 64.0003H33.2759L29.1959 54.8803H28.7559ZM31.5159 43.3203H28.7559V50.1203H31.5159C32.1825 50.1203 32.5159 49.827 32.5159 49.2403V44.2003C32.5159 43.6136 32.1825 43.3203 31.5159 43.3203ZM49.3027 59.0003H58.0627V64.0003H42.3027V38.3203H57.7027V43.3203H49.3027V48.5603H56.5427V53.5603H49.3027V59.0003ZM72.4315 38.3203H79.7115L73.3915 64.0003H65.2715L58.9515 38.3203H66.2315L69.3115 55.4803L72.4315 38.3203ZM81.5996 38.3203H88.5996V64.0003H81.5996V38.3203ZM98.7949 59.0003H107.555V64.0003H91.7949V38.3203H107.195V43.3203H98.7949V48.5603H106.035V53.5603H98.7949V59.0003ZM134.284 38.3203H141.204L135.764 64.0003H127.724L124.884 48.6803L122.044 64.0003H114.004L108.564 38.3203H115.844L118.004 55.6003L121.444 38.3203H128.284L131.724 55.6003L134.284 38.3203ZM153.042 58.1203V54.4803C153.042 53.8936 152.708 53.6003 152.042 53.6003H148.202C146.228 53.6003 144.828 53.1736 144.002 52.3203C143.202 51.4403 142.802 50.187 142.802 48.5603V43.2803C142.802 39.9736 144.748 38.3203 148.642 38.3203H154.122C158.015 38.3203 159.962 39.9736 159.962 43.2803V46.3603H152.962V44.2003C152.962 43.6136 152.628 43.3203 151.962 43.3203H150.802C150.135 43.3203 149.802 43.6136 149.802 44.2003V48.0003C149.802 48.587 150.135 48.8803 150.802 48.8803H154.562C156.535 48.8803 157.935 49.2936 158.762 50.1203C159.615 50.947 160.042 52.1603 160.042 53.7603V59.0403C160.042 62.347 158.095 64.0003 154.202 64.0003H148.762C144.842 64.0003 142.882 62.347 142.882 59.0403V55.9603H149.882V58.1203C149.882 58.707 150.215 59.0003 150.882 59.0003H152.042C152.708 59.0003 153.042 58.707 153.042 58.1203Z" fill="#003049"/>
<path d="M184 39C181.429 39 178.915 39.7624 176.778 41.1909C174.64 42.6194 172.974 44.6497 171.99 47.0251C171.006 49.4006 170.748 52.0144 171.25 54.5362C171.751 57.0579 172.99 59.3743 174.808 61.1924C176.626 63.0105 178.942 64.2486 181.464 64.7502C183.986 65.2518 186.599 64.9944 188.975 64.0104C191.35 63.0265 193.381 61.3603 194.809 59.2224C196.238 57.0846 197 54.5712 197 52C196.996 48.5533 195.626 45.2488 193.188 42.8116C190.751 40.3744 187.447 39.0036 184 39ZM193.565 57.4275H189.363L188.205 55.8325L189.784 51.235L191.659 50.6237L194.939 53.14C194.784 54.6491 194.316 56.1092 193.565 57.4275ZM173.065 53.14L176.339 50.625L178.214 51.2362L179.793 55.8337L178.638 57.4275H174.435C173.683 56.1094 173.215 54.6492 173.059 53.14H173.065ZM174.315 46.81L175.004 49.135L173.089 50.5962C173.259 49.2704 173.67 47.9871 174.304 46.81H174.315ZM181.625 55L180.193 50.8313L184 48.2137L187.808 50.8313L186.375 55H181.625ZM193.009 49.135L193.698 46.81C194.331 47.9871 194.743 49.2704 194.913 50.5962L193.009 49.135ZM192.234 44.7125L191.045 48.7225L189.161 49.3337L185 46.4738V44.5262L188.636 42.0262C190.006 42.6667 191.231 43.5809 192.234 44.7125ZM186.259 41.2337L184 42.7863L181.741 41.2337C183.231 40.9221 184.769 40.9221 186.259 41.2337ZM179.364 42.0262L183 44.5262V46.4738L178.84 49.3337L176.956 48.7225L175.768 44.7125C176.77 43.5809 177.994 42.6667 179.364 42.0262ZM175.894 59.4275H178.44L179.336 61.9613C178.035 61.3488 176.865 60.4881 175.894 59.4275ZM181.75 62.7663L180.265 58.5888L181.419 57H186.581L187.735 58.5888L186.256 62.7663C184.768 63.0781 183.232 63.0781 181.744 62.7663H181.75ZM188.67 61.9613L189.566 59.4275H192.113C191.139 60.4887 189.967 61.3495 188.664 61.9613H188.67Z" fill="#2B5367"/>
</svg>
