<svg width="150" height="54" viewBox="0 0 150 54" fill="none" xmlns="http://www.w3.org/2000/svg">
<path d="M12.7502 5.49023H6.4502V10.1702H11.9102V13.6202H6.4502V21.0002H1.2002V1.74023H12.7502V5.49023ZM18.7331 1.74023H23.1731C26.1131 1.74023 27.5831 2.98023 27.5831 5.46023V17.2802C27.5831 19.7603 26.1131 21.0002 23.1731 21.0002H18.7331C15.7931 21.0002 14.3231 19.7603 14.3231 17.2802V5.46023C14.3231 2.98023 15.7931 1.74023 18.7331 1.74023ZM22.3331 16.5902V6.15023C22.3331 5.71023 22.0831 5.49023 21.5831 5.49023H20.3231C19.8231 5.49023 19.5731 5.71023 19.5731 6.15023V16.5902C19.5731 17.0303 19.8231 17.2502 20.3231 17.2502H21.5831C22.0831 17.2502 22.3331 17.0303 22.3331 16.5902ZM34.2018 1.74023H38.6418C41.5818 1.74023 43.0518 2.98023 43.0518 5.46023V17.2802C43.0518 19.7603 41.5818 21.0002 38.6418 21.0002H34.2018C31.2618 21.0002 29.7918 19.7603 29.7918 17.2802V5.46023C29.7918 2.98023 31.2618 1.74023 34.2018 1.74023ZM37.8018 16.5902V6.15023C37.8018 5.71023 37.5519 5.49023 37.0518 5.49023H35.7918C35.2918 5.49023 35.0418 5.71023 35.0418 6.15023V16.5902C35.0418 17.0303 35.2918 17.2502 35.7918 17.2502H37.0518C37.5519 17.2502 37.8018 17.0303 37.8018 16.5902ZM56.9606 1.74023V5.49023H53.2406V21.0002H47.9906V5.49023H44.3006V1.74023H56.9606ZM66.3698 8.97024V5.85023C66.3698 5.41023 66.1198 5.19023 65.6198 5.19023H63.4598V9.63024H65.6198C66.1198 9.63024 66.3698 9.41026 66.3698 8.97024ZM66.3698 16.8902V13.7402C66.3698 13.3002 66.1198 13.0802 65.6198 13.0802H63.4598V17.5502H65.6198C66.1198 17.5502 66.3698 17.3303 66.3698 16.8902ZM58.2998 1.74023H67.1198C70.0598 1.74023 71.5298 2.98023 71.5298 5.46023V7.92024C71.5298 9.66024 71.0498 10.7903 70.0898 11.3102C70.6498 11.5502 71.0298 11.9202 71.2298 12.4202C71.4298 12.9002 71.5298 13.5602 71.5298 14.4002V17.2802C71.5298 19.7603 70.0598 21.0002 67.1198 21.0002H58.2998V1.74023ZM83.5787 21.0002L82.9787 18.1202H78.3587L77.7287 21.0002H72.5685L77.5187 1.74023H83.9087L88.8587 21.0002H83.5787ZM79.1687 14.4002H82.1687L80.6987 7.47023L79.1687 14.4002ZM95.308 17.2502H101.278V21.0002H90.058V1.74023H95.308V17.2502ZM107.729 17.2502H113.699V21.0002H102.479V1.74023H107.729V17.2502ZM1.2002 28.7402H10.1102C13.0502 28.7402 14.5202 29.9802 14.5202 32.4602V37.9802C14.5202 40.4603 13.0502 41.7002 10.1102 41.7002H6.4502V48.0002H1.2002V28.7402ZM9.2702 37.2902V33.1502C9.2702 32.7102 9.02022 32.4902 8.5202 32.4902H6.4502V37.9502H8.5202C9.02022 37.9502 9.2702 37.7303 9.2702 37.2902ZM21.5674 41.1602V48.0002H16.3174V28.7402H25.2274C28.1674 28.7402 29.6374 29.9802 29.6374 32.4602V37.4402C29.6374 39.3402 28.7774 40.5102 27.0574 40.9502L30.5974 48.0002H24.9574L21.8974 41.1602H21.5674ZM23.6374 32.4902H21.5674V37.5902H23.6374C24.1374 37.5902 24.3874 37.3703 24.3874 36.9302V33.1502C24.3874 32.7102 24.1374 32.4902 23.6374 32.4902ZM36.9775 44.2502H43.5475V48.0002H31.7275V28.7402H43.2775V32.4902H36.9775V36.4202H42.4075V40.1702H36.9775V44.2502ZM54.3241 28.7402H59.7841L55.0441 48.0002H48.9541L44.2141 28.7402H49.6741L51.9841 41.6102L54.3241 28.7402ZM61.2002 28.7402H66.4502V48.0002H61.2002V28.7402ZM74.0967 44.2502H80.6664V48.0002H68.8467V28.7402H80.3964V32.4902H74.0967V36.4202H79.5265V40.1702H74.0967V44.2502ZM100.713 28.7402H105.903L101.823 48.0002H95.7932L93.6632 36.5102L91.5332 48.0002H85.5032L81.4232 28.7402H86.8832L88.5032 41.7002L91.0832 28.7402H96.2132L98.7932 41.7002L100.713 28.7402ZM114.782 43.5902V40.8602C114.782 40.4202 114.531 40.2002 114.032 40.2002H111.152C109.671 40.2002 108.621 39.8802 108.002 39.2402C107.402 38.5802 107.102 37.6403 107.102 36.4202V32.4602C107.102 29.9802 108.561 28.7402 111.482 28.7402H115.592C118.511 28.7402 119.972 29.9802 119.972 32.4602V34.7702H114.722V33.1502C114.722 32.7102 114.471 32.4902 113.972 32.4902H113.102C112.601 32.4902 112.352 32.7102 112.352 33.1502V36.0002C112.352 36.4403 112.601 36.6602 113.102 36.6602H115.922C117.401 36.6602 118.451 36.9702 119.072 37.5902C119.711 38.2103 120.032 39.1202 120.032 40.3202V44.2802C120.032 46.7603 118.571 48.0002 115.652 48.0002H111.572C108.632 48.0002 107.162 46.7603 107.162 44.2802V41.9702H112.412V43.5902C112.412 44.0303 112.661 44.2502 113.162 44.2502H114.032C114.531 44.2502 114.782 44.0303 114.782 43.5902Z" fill="#003049"/>
<path d="M138 29.25C136.072 29.25 134.186 29.8218 132.583 30.8932C130.98 31.9645 129.73 33.4873 128.992 35.2688C128.254 37.0505 128.061 39.0108 128.437 40.9022C128.813 42.7934 129.742 44.5307 131.106 45.8943C132.469 47.2579 134.206 48.1864 136.098 48.5626C137.989 48.9388 139.949 48.7458 141.731 48.0078C143.512 47.2699 145.036 46.0202 146.107 44.4168C147.178 42.8135 147.75 40.9284 147.75 39C147.747 36.415 146.719 33.9366 144.891 32.1087C143.063 30.2808 140.585 29.2527 138 29.25ZM145.174 43.0706H142.022L141.154 41.8744L142.338 38.4263L143.744 37.9678L146.204 39.855C146.088 40.9868 145.737 42.0819 145.174 43.0706ZM129.799 39.855L132.254 37.9688L133.66 38.4271L134.845 41.8753L133.978 43.0706H130.826C130.262 42.0821 129.911 40.9869 129.794 39.855H129.799ZM130.736 35.1075L131.253 36.8512L129.817 37.9471C129.944 36.9528 130.252 35.9903 130.728 35.1075H130.736ZM136.219 41.25L135.145 38.1235L138 36.1603L140.856 38.1235L139.781 41.25H136.219ZM144.757 36.8512L145.273 35.1075C145.748 35.9903 146.057 36.9528 146.185 37.9471L144.757 36.8512ZM144.175 33.5344L143.284 36.5419L141.871 37.0003L138.75 34.8554V33.3946L141.477 31.5196C142.504 32 143.423 32.6857 144.175 33.5344ZM139.694 30.9253L138 32.0897L136.306 30.9253C137.423 30.6916 138.577 30.6916 139.694 30.9253ZM134.523 31.5196L137.25 33.3946V34.8554L134.13 37.0003L132.717 36.5419L131.826 33.5344C132.577 32.6857 133.495 32 134.523 31.5196ZM131.92 44.5706H133.83L134.502 46.471C133.526 46.0116 132.649 45.3661 131.92 44.5706ZM136.312 47.0747L135.199 43.9416L136.064 42.75H139.936L140.801 43.9416L139.692 47.0747C138.576 47.3086 137.424 47.3086 136.308 47.0747H136.312ZM141.502 46.471L142.174 44.5706H144.085C143.354 45.3665 142.475 46.0121 141.498 46.471H141.502Z" fill="#2B5367"/>
</svg>
