<svg width="100" height="36" viewBox="0 0 100 36" fill="none" xmlns="http://www.w3.org/2000/svg">
<path d="M8.4998 3.66016H4.2998V6.78016H7.9398V9.08016H4.2998V14.0002H0.799805V1.16016H8.4998V3.66016ZM12.4884 1.16016H15.4484C17.4084 1.16016 18.3884 1.98682 18.3884 3.64016V11.5202C18.3884 13.1735 17.4084 14.0002 15.4484 14.0002H12.4884C10.5284 14.0002 9.5484 13.1735 9.5484 11.5202V3.64016C9.5484 1.98682 10.5284 1.16016 12.4884 1.16016ZM14.8884 11.0602V4.10016C14.8884 3.80682 14.7218 3.66016 14.3884 3.66016H13.5484C13.2151 3.66016 13.0484 3.80682 13.0484 4.10016V11.0602C13.0484 11.3535 13.2151 11.5002 13.5484 11.5002H14.3884C14.7218 11.5002 14.8884 11.3535 14.8884 11.0602ZM22.8009 1.16016H25.7609C27.7209 1.16016 28.7009 1.98682 28.7009 3.64016V11.5202C28.7009 13.1735 27.7209 14.0002 25.7609 14.0002H22.8009C20.8409 14.0002 19.8609 13.1735 19.8609 11.5202V3.64016C19.8609 1.98682 20.8409 1.16016 22.8009 1.16016ZM25.2009 11.0602V4.10016C25.2009 3.80682 25.0343 3.66016 24.7009 3.66016H23.8609C23.5276 3.66016 23.3609 3.80682 23.3609 4.10016V11.0602C23.3609 11.3535 23.5276 11.5002 23.8609 11.5002H24.7009C25.0343 11.5002 25.2009 11.3535 25.2009 11.0602ZM37.9734 1.16016V3.66016H35.4934V14.0002H31.9934V3.66016H29.5334V1.16016H37.9734ZM44.2462 5.98016V3.90016C44.2462 3.60682 44.0796 3.46016 43.7462 3.46016H42.3062V6.42016H43.7462C44.0796 6.42016 44.2462 6.27351 44.2462 5.98016ZM44.2462 11.2602V9.16016C44.2462 8.86681 44.0796 8.72016 43.7462 8.72016H42.3062V11.7002H43.7462C44.0796 11.7002 44.2462 11.5535 44.2462 11.2602ZM38.8662 1.16016H44.7462C46.7062 1.16016 47.6862 1.98682 47.6862 3.64016V5.28016C47.6862 6.44016 47.3662 7.19351 46.7262 7.54016C47.0996 7.70016 47.3529 7.94681 47.4862 8.28016C47.6196 8.60016 47.6862 9.04016 47.6862 9.60016V11.5202C47.6862 13.1735 46.7062 14.0002 44.7462 14.0002H38.8662V1.16016ZM55.7188 14.0002L55.3188 12.0802H52.2388L51.8188 14.0002H48.3787L51.6788 1.16016H55.9388L59.2388 14.0002H55.7188ZM52.7788 9.60016H54.7788L53.7988 4.98016L52.7788 9.60016ZM63.5383 11.5002H67.5183V14.0002H60.0383V1.16016H63.5383V11.5002ZM71.8193 11.5002H75.7993V14.0002H68.3193V1.16016H71.8193V11.5002ZM0.799805 19.1602H6.7398C8.6998 19.1602 9.6798 19.9868 9.6798 21.6402V25.3202C9.6798 26.9735 8.6998 27.8002 6.7398 27.8002H4.2998V32.0002H0.799805V19.1602ZM6.1798 24.8602V22.1002C6.1798 21.8068 6.01315 21.6602 5.6798 21.6602H4.2998V25.3002H5.6798C6.01315 25.3002 6.1798 25.1535 6.1798 24.8602ZM14.378 27.4402V32.0002H10.878V19.1602H16.818C18.778 19.1602 19.758 19.9868 19.758 21.6402V24.9602C19.758 26.2268 19.1846 27.0068 18.038 27.3002L20.398 32.0002H16.638L14.598 27.4402H14.378ZM15.758 21.6602H14.378V25.0602H15.758C16.0913 25.0602 16.258 24.9135 16.258 24.6202V22.1002C16.258 21.8068 16.0913 21.6602 15.758 21.6602ZM24.6514 29.5002H29.0314V32.0002H21.1514V19.1602H28.8514V21.6602H24.6514V24.2802H28.2714V26.7802H24.6514V29.5002ZM36.2158 19.1602H39.8558L36.6958 32.0002H32.6358L29.4758 19.1602H33.1158L34.6558 27.7402L36.2158 19.1602ZM40.7998 19.1602H44.2998V32.0002H40.7998V19.1602ZM49.3975 29.5002H53.7773V32.0002H45.8975V19.1602H53.5973V21.6602H49.3975V24.2802H53.0173V26.7802H49.3975V29.5002ZM67.1418 19.1602H70.6018L67.8818 32.0002H63.8618L62.4418 24.3402L61.0218 32.0002H57.0018L54.2818 19.1602H57.9218L59.0018 27.8002L60.7218 19.1602H64.1418L65.8618 27.8002L67.1418 19.1602ZM76.5208 29.0602V27.2402C76.5208 26.9468 76.3538 26.8002 76.0208 26.8002H74.1008C73.1138 26.8002 72.4138 26.5868 72.0008 26.1602C71.6008 25.7202 71.4008 25.0935 71.4008 24.2802V21.6402C71.4008 19.9868 72.3738 19.1602 74.3208 19.1602H77.0608C79.0073 19.1602 79.9808 19.9868 79.9808 21.6402V23.1802H76.4808V22.1002C76.4808 21.8068 76.3138 21.6602 75.9808 21.6602H75.4008C75.0673 21.6602 74.9008 21.8068 74.9008 22.1002V24.0002C74.9008 24.2935 75.0673 24.4402 75.4008 24.4402H77.2808C78.2673 24.4402 78.9673 24.6468 79.3808 25.0602C79.8073 25.4735 80.0208 26.0802 80.0208 26.8802V29.5202C80.0208 31.1735 79.0473 32.0002 77.1008 32.0002H74.3808C72.4208 32.0002 71.4408 31.1735 71.4408 29.5202V27.9802H74.9408V29.0602C74.9408 29.3535 75.1073 29.5002 75.4408 29.5002H76.0208C76.3538 29.5002 76.5208 29.3535 76.5208 29.0602Z" fill="#003049"/>
<path d="M92 19.5C90.7145 19.5 89.4575 19.8812 88.389 20.5954C87.32 21.3097 86.487 22.3249 85.995 23.5126C85.503 24.7003 85.374 26.0072 85.625 27.2681C85.8755 28.529 86.495 29.6872 87.404 30.5962C88.313 31.5053 89.471 32.1243 90.732 32.3751C91.993 32.6259 93.2995 32.4972 94.4875 32.0052C95.675 31.5132 96.6905 30.6802 97.4045 29.6112C98.119 28.5423 98.5 27.2856 98.5 26C98.498 24.2766 97.813 22.6244 96.594 21.4058C95.3755 20.1872 93.7235 19.5018 92 19.5ZM96.7825 28.7138H94.6815L94.1025 27.9163L94.892 25.6175L95.8295 25.3118L97.4695 26.57C97.392 27.3245 97.158 28.0546 96.7825 28.7138ZM86.5325 26.57L88.1695 25.3125L89.107 25.6181L89.8965 27.9168L89.319 28.7138H87.2175C86.8415 28.0547 86.6075 27.3246 86.5295 26.57H86.5325ZM87.1575 23.405L87.502 24.5675L86.5445 25.2981C86.6295 24.6352 86.835 23.9936 87.152 23.405H87.1575ZM90.8125 27.5L90.0965 25.4156L92 24.1068L93.904 25.4156L93.1875 27.5H90.8125ZM96.5045 24.5675L96.849 23.405C97.1655 23.9936 97.3715 24.6352 97.4565 25.2981L96.5045 24.5675ZM96.117 22.3563L95.5225 24.3612L94.5805 24.6668L92.5 23.2369V22.2631L94.318 21.0131C95.003 21.3333 95.6155 21.7905 96.117 22.3563ZM93.1295 20.6168L92 21.3932L90.8705 20.6168C91.6155 20.461 92.3845 20.461 93.1295 20.6168ZM89.682 21.0131L91.5 22.2631V23.2369L89.42 24.6668L88.478 24.3612L87.884 22.3563C88.385 21.7905 88.997 21.3333 89.682 21.0131ZM87.947 29.7138H89.22L89.668 30.9806C89.0175 30.6744 88.4325 30.2441 87.947 29.7138ZM90.875 31.3832L90.1325 29.2944L90.7095 28.5H93.2905L93.8675 29.2944L93.128 31.3832C92.384 31.5391 91.616 31.5391 90.872 31.3832H90.875ZM94.335 30.9806L94.783 29.7138H96.0565C95.5695 30.2444 94.9835 30.6748 94.332 30.9806H94.335Z" fill="#2B5367"/>
</svg>
