<svg width="24" height="24" viewBox="0 0 24 24" fill="none" xmlns="http://www.w3.org/2000/svg">
<path d="M13.0605 8.11122L14.4747 9.52543C17.2084 12.2591 17.2084 16.6913 14.4747 19.4249L14.1211 19.7785C11.3875 22.5122 6.95531 22.5122 4.22164 19.7785C1.48797 17.0448 1.48797 12.6127 4.22164 9.87898L5.63585 11.2932C3.68323 13.2458 3.68323 16.4117 5.63585 18.3643C7.58847 20.3169 10.7543 20.3169 12.7069 18.3643L13.0605 18.0107C15.0131 16.0581 15.0131 12.8923 13.0605 10.9397L11.6463 9.52543L13.0605 8.11122ZM19.778 14.1216L18.3638 12.7074C20.3164 10.7548 20.3164 7.58896 18.3638 5.63634C16.4112 3.68372 13.2453 3.68372 11.2927 5.63634L10.9392 5.9899C8.98653 7.94252 8.98653 11.1084 10.9392 13.061L12.3534 14.4752L10.9392 15.8894L9.52494 14.4752C6.79127 11.7415 6.79127 7.30935 9.52494 4.57568L9.87849 4.22213C12.6122 1.48846 17.0443 1.48846 19.778 4.22213C22.5117 6.9558 22.5117 11.388 19.778 14.1216Z" fill="#003049"/>
</svg>
